<?xml version="1.0" standalone="no"?>
<!DOCTYPE svg PUBLIC "-//W3C//DTD SVG 20010904//EN"
"http://www.w3.org/TR/2001/REC-SVG-20010904/DTD/svg10.dtd">
<svg version="1.0" xmlns="http://www.w3.org/2000/svg"
width="700.000000pt" height="700.000000pt" viewBox="0 0 700.000000 700.000000"
preserveAspectRatio="xMidYMid meet">
<metadata>
Created by potrace 1.11, written by Peter Selinger 2001-2013
</metadata>
<g transform="translate(0.000000,700.000000) scale(0.100000,-0.100000)"
fill="#000000" stroke="none">
<path d="M3425 6771 c-64 -17 -138 -71 -165 -122 -10 -18 -7 -19 39 -19 44 0
49 -2 44 -20 -4 -16 0 -20 21 -20 14 0 26 4 26 10 0 19 75 60 110 60 35 0 110
-41 110 -60 0 -6 12 -10 26 -10 21 0 25 4 21 20 -5 18 0 20 44 20 46 0 49 1
39 19 -17 32 -70 81 -112 102 -44 22 -154 33 -203 20z"/>
<path d="M1410 6216 c-137 -38 -249 -147 -290 -285 -20 -65 -20 -88 -18 -2726
l3 -2660 36 -75 c60 -127 160 -209 287 -235 100 -22 4044 -22 4144 0 127 26
227 108 287 235 l36 75 3 2660 c2 2638 2 2661 -18 2726 -32 106 -113 204 -210
254 -85 44 -99 45 -867 45 l-733 0 0 -53 0 -53 133 -43 c149 -49 179 -67 207
-121 l19 -38 -29 -12 c-22 -9 -70 -11 -173 -6 -93 4 -135 3 -122 -4 11 -5 121
-28 245 -50 124 -22 237 -43 252 -46 15 -3 44 -19 64 -35 l37 -29 423 0 424 0
0 -1117 c0 -1080 12 -2731 26 -3675 l7 -458 -2083 0 -2083 0 7 233 c20 722 29
1695 30 3259 l1 1758 418 0 419 0 41 30 c38 27 68 35 292 75 138 25 259 50
270 55 13 7 -27 8 -123 4 -102 -5 -151 -3 -172 6 l-29 12 19 38 c28 54 58 72
208 121 l132 43 0 53 0 53 -737 -1 c-557 -1 -749 -4 -783 -13z"/>
<path d="M2197 5493 c-4 -3 -7 -10 -7 -15 0 -4 589 -8 1310 -8 1160 0 1309 2
1304 15 -5 13 -160 15 -1303 15 -714 0 -1301 -3 -1304 -7z"/>
<path d="M1970 4705 l0 -325 325 0 325 0 0 234 0 234 25 31 c14 16 48 47 76
67 67 49 52 63 -31 30 -35 -14 -65 -26 -67 -26 -2 0 -3 18 -3 40 l0 40 -325 0
-325 0 0 -325z m600 241 c0 -29 -7 -39 -51 -72 -55 -43 -149 -155 -180 -216
l-20 -39 -76 71 -75 72 -49 -4 c-27 -3 -58 -13 -69 -23 -19 -17 -19 -18 23
-45 51 -34 140 -125 196 -202 l42 -58 -146 0 -145 0 0 275 0 275 275 0 275 0
0 -34z m0 -336 l0 -180 -127 0 -126 0 52 38 c47 33 56 46 85 118 26 66 103
204 114 204 1 0 2 -81 2 -180z"/>
<path d="M2850 4650 l0 -50 1090 0 1090 0 0 50 0 50 -1090 0 -1090 0 0 -50z"/>
<path d="M1970 3610 l0 -330 325 0 325 0 0 330 0 330 -325 0 -325 0 0 -330z
m600 -5 l0 -275 -272 2 -273 3 -3 273 -2 272 275 0 275 0 0 -275z"/>
<path d="M2850 3555 l0 -55 1090 0 1090 0 0 55 0 55 -1090 0 -1090 0 0 -55z"/>
<path d="M1970 2515 l0 -325 325 0 325 0 0 325 0 325 -325 0 -325 0 0 -325z
m600 0 l0 -275 -275 0 -275 0 0 275 0 275 275 0 275 0 0 -275z"/>
<path d="M2850 2460 l0 -50 1090 0 1090 0 0 50 0 50 -1090 0 -1090 0 0 -50z"/>
<path d="M1970 1425 l0 -325 325 0 325 0 0 325 0 325 -325 0 -325 0 0 -325z
m600 0 l0 -275 -275 0 -275 0 0 275 0 275 275 0 275 0 0 -275z"/>
<path d="M2850 1365 l0 -55 1090 0 1090 0 0 55 0 55 -1090 0 -1090 0 0 -55z"/>
</g>
</svg>
